# This file uses centimeters as units for non-parametric coordinates.

mtllib anticrystal.mtl
g default
v 0.780260 0.053538 0.431731
v 0.688798 0.039883 0.359514
v 0.604437 0.210975 0.501152
v 0.758065 0.072790 0.527172
vt 0.608660 0.808640
vt 0.654960 0.834920
vt 0.621870 0.973130
vt 0.553450 0.834110
vn 0.379625 0.693807 -0.611978
vn 0.379625 0.693807 -0.611978
vn 0.379625 0.693807 -0.611978
vn 0.534417 0.759957 -0.369952
vn 0.534417 0.759956 -0.369952
vn 0.534418 0.759956 -0.369952
s off
g obsouls2:SphereBase
usemtl initialShadingGroup
f 1/1/1 2/2/2 3/3/3
f 3/3/4 4/4/5 1/1/6
g default
v 0.325715 0.274658 0.500000
v 0.398795 0.400298 0.500000
v 0.450212 0.450951 0.594272
v 0.440649 0.500000 0.612379
v 0.450212 0.549049 0.594272
v 0.398795 0.599702 0.500000
v 0.312841 0.731180 0.500000
v 0.500000 0.558470 0.612379
v 0.549788 0.549049 0.594272
v 0.601205 0.599702 0.500000
v 0.559351 0.500000 0.612379
v 0.723985 0.683858 0.500000
v 0.549788 0.450951 0.594272
v 0.601205 0.400298 0.500000
v 0.500000 0.441530 0.612379
v 0.755506 0.310338 0.500000
v 0.500000 0.500000 0.643094
v 0.450212 0.450951 0.405728
v 0.440649 0.500000 0.387621
v 0.450212 0.549049 0.405728
v 0.500000 0.558470 0.387621
v 0.549788 0.549049 0.405728
v 0.559351 0.500000 0.387621
v 0.549788 0.450951 0.405728
v 0.500000 0.441530 0.387621
v 0.500000 0.500000 0.370883
v 0.249378 0.571065 0.500000
v 0.428263 0.429329 0.500000
v 0.464709 0.465233 0.566823
v 0.457930 0.500000 0.579658
v 0.464709 0.534767 0.566823
v 0.428263 0.570671 0.500000
v 0.544729 0.835165 0.500000
v 0.500000 0.541445 0.579658
v 0.535291 0.534767 0.566823
v 0.571737 0.570671 0.500000
v 0.542070 0.500000 0.579658
v 0.758730 0.448168 0.500000
v 0.535291 0.465233 0.566823
v 0.571737 0.429329 0.500000
v 0.500000 0.458555 0.579658
v 0.445305 0.195155 0.500000
v 0.500000 0.500000 0.630381
v 0.457930 0.500000 0.475164
v 0.464709 0.465233 0.433177
v 0.464709 0.534767 0.433177
v 0.500000 0.541445 0.420342
v 0.535291 0.534767 0.433177
v 0.542070 0.500000 0.420342
v 0.535291 0.465233 0.433177
v 0.500000 0.458555 0.420342
v 0.500000 0.500000 0.424441
v 0.350824 0.500000 0.500000
v 0.452343 0.453051 0.500000
v 0.476555 0.476903 0.544392
v 0.472052 0.500000 0.552919
v 0.476555 0.523097 0.544392
v 0.452343 0.546949 0.500000
v 0.500000 0.708366 0.500000
v 0.500000 0.527533 0.552919
v 0.523445 0.523097 0.544392
v 0.547657 0.546949 0.500000
v 0.527948 0.500000 0.552919
v 0.649176 0.500000 0.500000
v 0.523445 0.476903 0.544392
v 0.547657 0.453051 0.500000
v 0.500000 0.472467 0.552919
v 0.455620 0.291634 0.500000
v 0.500000 0.500000 0.586616
v 0.472052 0.500000 0.501903
v 0.476555 0.476903 0.455608
v 0.476555 0.523097 0.510430
v 0.500000 0.527533 0.447081
v 0.523445 0.523097 0.455608
v 0.527948 0.500000 0.447081
v 0.523445 0.476903 0.455608
v 0.500000 0.472467 0.447081
v 0.500000 0.500000 0.413384
vt 0.011540 0.003320
vt 0.007280 0.004890
vt 0.007270 0.006260
vt 0.007270 0.006260
vt 0.008060 0.006800
vt 0.011540 0.003320
vt 0.008600 0.007590
vt 0.009980 0.007580
vt 0.011540 0.003320
vt 0.011540 0.003320
vt 0.008060 0.006800
vt 0.008600 0.007590
vt 0.013240 0.013570
vt 0.009980 0.007580
vt 0.008600 0.007590
vt 0.008600 0.007590
vt 0.008050 0.008390
vt 0.013240 0.013570
vt 0.013240 0.013570
vt 0.008050 0.008390
vt 0.007250 0.008930
vt 0.007250 0.008930
vt 0.007240 0.010310
vt 0.013240 0.013570
vt 0.007250 0.008930
vt 0.006460 0.008400
vt 0.002990 0.011870
vt 0.002990 0.011870
vt 0.007240 0.010310
vt 0.007250 0.008930
vt 0.002990 0.011870
vt 0.006460 0.008400
vt 0.005930 0.007610
vt 0.005930 0.007610
vt 0.004550 0.007620
vt 0.002990 0.011870
vt 0.006470 0.006810
vt 0.001290 0.001630
vt 0.004550 0.007620
vt 0.006470 0.006810
vt 0.004550 0.007620
vt 0.005930 0.007610
vt 0.007270 0.006260
vt 0.007280 0.004890
vt 0.001290 0.001630
vt 0.001290 0.001630
vt 0.006470 0.006810
vt 0.007270 0.006260
vt 0.007260 0.007600
vt 0.008060 0.006800
vt 0.007270 0.006260
vt 0.007270 0.006260
vt 0.006470 0.006810
vt 0.007260 0.007600
vt 0.008600 0.007590
vt 0.008060 0.006800
vt 0.007260 0.007600
vt 0.007260 0.007600
vt 0.008050 0.008390
vt 0.008600 0.007590
vt 0.007250 0.008930
vt 0.008050 0.008390
vt 0.007260 0.007600
vt 0.007260 0.007600
vt 0.006460 0.008400
vt 0.007250 0.008930
vt 0.007260 0.007600
vt 0.006470 0.006810
vt 0.005930 0.007610
vt 0.005930 0.007610
vt 0.006460 0.008400
vt 0.007260 0.007600
vt 0.007270 0.006260
vt 0.007280 0.004890
vt 0.011540 0.003320
vt 0.008060 0.006800
vt 0.007270 0.006260
vt 0.011540 0.003320
vt 0.008600 0.007590
vt 0.008060 0.006800
vt 0.011540 0.003320
vt 0.011540 0.003320
vt 0.009980 0.007580
vt 0.008600 0.007590
vt 0.013240 0.013570
vt 0.008050 0.008390
vt 0.008600 0.007590
vt 0.008600 0.007590
vt 0.009980 0.007580
vt 0.013240 0.013570
vt 0.013240 0.013570
vt 0.007240 0.010310
vt 0.007250 0.008930
vt 0.007250 0.008930
vt 0.008050 0.008390
vt 0.013240 0.013570
vt 0.007250 0.008930
vt 0.007240 0.010310
vt 0.002990 0.011870
vt 0.002990 0.011870
vt 0.006460 0.008400
vt 0.007250 0.008930
vt 0.002990 0.011870
vt 0.004550 0.007620
vt 0.005930 0.007610
vt 0.005930 0.007610
vt 0.006460 0.008400
vt 0.002990 0.011870
vt 0.005930 0.007610
vt 0.004550 0.007620
vt 0.001290 0.001630
vt 0.001290 0.001630
vt 0.006470 0.006810
vt 0.005930 0.007610
vt 0.007270 0.006260
vt 0.006470 0.006810
vt 0.001290 0.001630
vt 0.001290 0.001630
vt 0.007280 0.004890
vt 0.007270 0.006260
vt 0.007260 0.007600
vt 0.006470 0.006810
vt 0.007270 0.006260
vt 0.007270 0.006260
vt 0.008060 0.006800
vt 0.007260 0.007600
vt 0.008600 0.007590
vt 0.008050 0.008390
vt 0.007260 0.007600
vt 0.007260 0.007600
vt 0.008060 0.006800
vt 0.008600 0.007590
vt 0.007250 0.008930
vt 0.006460 0.008400
vt 0.007260 0.007600
vt 0.007260 0.007600
vt 0.008050 0.008390
vt 0.007250 0.008930
vt 0.007260 0.007600
vt 0.006460 0.008400
vt 0.005930 0.007610
vt 0.005930 0.007610
vt 0.006470 0.006810
vt 0.007260 0.007600
vt 0.011540 0.003320
vt 0.007280 0.004890
vt 0.007270 0.006260
vt 0.008060 0.006800
vt 0.008600 0.007590
vt 0.009980 0.007580
vt 0.013240 0.013570
vt 0.008050 0.008390
vt 0.007250 0.008930
vt 0.007240 0.010310
vt 0.006460 0.008400
vt 0.002990 0.011870
vt 0.005930 0.007610
vt 0.004550 0.007620
vt 0.006470 0.006810
vt 0.001290 0.001630
vt 0.007260 0.007600
vt 0.008060 0.006800
vt 0.007270 0.006260
vt 0.007270 0.006260
vt 0.008600 0.007590
vt 0.008060 0.006800
vt 0.008600 0.007590
vt 0.008050 0.008390
vt 0.008600 0.007590
vt 0.008600 0.007590
vt 0.007250 0.008930
vt 0.007250 0.008930
vt 0.008050 0.008390
vt 0.007250 0.008930
vt 0.006460 0.008400
vt 0.007250 0.008930
vt 0.005930 0.007610
vt 0.005930 0.007610
vt 0.006460 0.008400
vt 0.005930 0.007610
vt 0.006470 0.006810
vt 0.005930 0.007610
vt 0.007270 0.006260
vt 0.006470 0.006810
vt 0.007270 0.006260
vt 0.007260 0.007600
vt 0.006470 0.006810
vt 0.007270 0.006260
vt 0.007270 0.006260
vt 0.008060 0.006800
vt 0.007260 0.007600
vt 0.008600 0.007590
vt 0.008050 0.008390
vt 0.007260 0.007600
vt 0.007260 0.007600
vt 0.008060 0.006800
vt 0.008600 0.007590
vt 0.007250 0.008930
vt 0.006460 0.008400
vt 0.007260 0.007600
vt 0.007260 0.007600
vt 0.008050 0.008390
vt 0.007250 0.008930
vt 0.007260 0.007600
vt 0.006460 0.008400
vt 0.005930 0.007610
vt 0.005930 0.007610
vt 0.006470 0.006810
vt 0.007260 0.007600
vt 0.011570 0.027140
vt 0.010290 0.023650
vt 0.009160 0.023640
vt 0.008730 0.024290
vt 0.008080 0.024730
vt 0.008090 0.025850
vt 0.003180 0.028520
vt 0.007430 0.024280
vt 0.006980 0.023630
vt 0.005850 0.023620
vt 0.007420 0.022980
vt 0.004570 0.020130
vt 0.008060 0.022540
vt 0.008060 0.021410
vt 0.008720 0.022990
vt 0.012960 0.018740
vt 0.008070 0.023630
vt 0.008730 0.024290
vt 0.009160 0.023640
vt 0.009160 0.023640
vt 0.008080 0.024730
vt 0.008730 0.024290
vt 0.008080 0.024730
vt 0.007430 0.024280
vt 0.008080 0.024730
vt 0.007430 0.024280
vt 0.006980 0.023630
vt 0.006980 0.023630
vt 0.007430 0.024280
vt 0.006980 0.023630
vt 0.007420 0.022980
vt 0.006980 0.023630
vt 0.008060 0.022540
vt 0.008060 0.022540
vt 0.007420 0.022980
vt 0.008060 0.022540
vt 0.008720 0.022990
vt 0.008060 0.022540
vt 0.009160 0.023640
vt 0.008720 0.022990
vt 0.009160 0.023640
vt 0.008070 0.023630
vt 0.008720 0.022990
vt 0.009160 0.023640
vt 0.009160 0.023640
vt 0.008730 0.024290
vt 0.008070 0.023630
vt 0.008080 0.024730
vt 0.007430 0.024280
vt 0.008070 0.023630
vt 0.008070 0.023630
vt 0.008730 0.024290
vt 0.008080 0.024730
vt 0.006980 0.023630
vt 0.007420 0.022980
vt 0.008070 0.023630
vt 0.008070 0.023630
vt 0.007430 0.024280
vt 0.006980 0.023630
vt 0.008070 0.023630
vt 0.007420 0.022980
vt 0.008060 0.022540
vt 0.008060 0.022540
vt 0.008720 0.022990
vt 0.008070 0.023630
vn -0.364260 -0.575270 0.732379
vn -0.495260 -0.424750 0.757829
vn -0.499878 -0.455718 0.736507
vn -0.499878 -0.455718 0.736507
vn -0.436960 -0.546639 0.714319
vn -0.364260 -0.575270 0.732379
vn -0.499878 0.455718 0.736507
vn -0.495260 0.424750 0.757829
vn -0.364260 0.575270 0.732379
vn -0.364260 0.575270 0.732379
vn -0.436960 0.546639 0.714319
vn -0.499878 0.455718 0.736507
vn -0.606220 0.257050 0.752610
vn -0.495260 0.424750 0.757829
vn -0.499878 0.455718 0.736507
vn -0.499878 0.455718 0.736507
vn -0.562178 0.389678 0.729457
vn -0.606220 0.257050 0.752610
vn 0.606220 0.257050 0.752610
vn 0.562178 0.389678 0.729457
vn 0.499878 0.455718 0.736507
vn 0.499878 0.455718 0.736507
vn 0.495260 0.424750 0.757829
vn 0.606220 0.257050 0.752610
vn 0.499878 0.455718 0.736507
vn 0.436960 0.546639 0.714319
vn 0.364260 0.575270 0.732379
vn 0.364260 0.575270 0.732379
vn 0.495260 0.424750 0.757829
vn 0.499878 0.455718 0.736507
vn 0.364260 -0.575270 0.732379
vn 0.436960 -0.546639 0.714319
vn 0.499878 -0.455718 0.736507
vn 0.499878 -0.455718 0.736507
vn 0.495260 -0.424750 0.757829
vn 0.364260 -0.575270 0.732379
vn 0.562178 -0.389678 0.729457
vn 0.606220 -0.257050 0.752610
vn 0.495260 -0.424750 0.757829
vn 0.562178 -0.389678 0.729457
vn 0.495260 -0.424750 0.757829
vn 0.499878 -0.455718 0.736507
vn -0.499878 -0.455718 0.736507
vn -0.495260 -0.424750 0.757829
vn -0.606220 -0.257050 0.752610
vn -0.606220 -0.257050 0.752610
vn -0.562178 -0.389678 0.729457
vn -0.499878 -0.455718 0.736507
vn -0.506849 -0.514489 0.691669
vn -0.436960 -0.546639 0.714319
vn -0.499878 -0.455718 0.736507
vn -0.499878 -0.455718 0.736507
vn -0.562178 -0.389678 0.729457
vn -0.506849 -0.514489 0.691669
vn -0.499878 0.455718 0.736507
vn -0.436960 0.546639 0.714319
vn -0.506849 0.514489 0.691669
vn -0.506849 0.514489 0.691669
vn -0.562178 0.389678 0.729457
vn -0.499878 0.455718 0.736507
vn 0.499878 0.455718 0.736507
vn 0.562178 0.389678 0.729457
vn 0.506849 0.514489 0.691669
vn 0.506849 0.514489 0.691669
vn 0.436960 0.546639 0.714319
vn 0.499878 0.455718 0.736507
vn 0.506849 -0.514489 0.691669
vn 0.562178 -0.389678 0.729457
vn 0.499878 -0.455718 0.736507
vn 0.499878 -0.455718 0.736507
vn 0.436960 -0.546639 0.714319
vn 0.506849 -0.514489 0.691669
vn -0.499878 -0.455718 -0.736507
vn -0.495260 -0.424750 -0.757829
vn -0.364260 -0.575270 -0.732379
vn -0.436960 -0.546639 -0.714319
vn -0.499878 -0.455718 -0.736507
vn -0.364260 -0.575270 -0.732379
vn -0.499878 0.455718 -0.736507
vn -0.436960 0.546639 -0.714319
vn -0.364260 0.575270 -0.732379
vn -0.364260 0.575270 -0.732379
vn -0.495260 0.424750 -0.757829
vn -0.499878 0.455718 -0.736507
vn -0.606220 0.257050 -0.752610
vn -0.562178 0.389678 -0.729457
vn -0.499878 0.455718 -0.736507
vn -0.499878 0.455718 -0.736507
vn -0.495260 0.424750 -0.757829
vn -0.606220 0.257050 -0.752610
vn 0.606220 0.257050 -0.752610
vn 0.495260 0.424750 -0.757829
vn 0.499878 0.455718 -0.736507
vn 0.499878 0.455718 -0.736507
vn 0.562178 0.389678 -0.729457
vn 0.606220 0.257050 -0.752610
vn 0.499878 0.455718 -0.736507
vn 0.495260 0.424750 -0.757829
vn 0.364260 0.575270 -0.732379
vn 0.364260 0.575270 -0.732379
vn 0.436960 0.546639 -0.714319
vn 0.499878 0.455718 -0.736507
vn 0.364260 -0.575270 -0.732379
vn 0.495260 -0.424750 -0.757829
vn 0.499878 -0.455718 -0.736507
vn 0.499878 -0.455718 -0.736507
vn 0.436960 -0.546639 -0.714319
vn 0.364260 -0.575270 -0.732379
vn 0.499878 -0.455718 -0.736507
vn 0.495260 -0.424750 -0.757829
vn 0.606220 -0.257050 -0.752610
vn 0.606220 -0.257050 -0.752610
vn 0.562178 -0.389678 -0.729457
vn 0.499878 -0.455718 -0.736507
vn -0.499878 -0.455718 -0.736507
vn -0.562178 -0.389678 -0.729457
vn -0.606220 -0.257050 -0.752610
vn -0.606220 -0.257050 -0.752610
vn -0.495260 -0.424750 -0.757829
vn -0.499878 -0.455718 -0.736507
vn -0.506849 -0.514489 -0.691669
vn -0.562178 -0.389678 -0.729457
vn -0.499878 -0.455718 -0.736507
vn -0.499878 -0.455718 -0.736507
vn -0.436960 -0.546639 -0.714319
vn -0.506849 -0.514489 -0.691669
vn -0.499878 0.455718 -0.736507
vn -0.562178 0.389678 -0.729457
vn -0.506849 0.514489 -0.691669
vn -0.506849 0.514489 -0.691669
vn -0.436960 0.546639 -0.714319
vn -0.499878 0.455718 -0.736507
vn 0.499878 0.455718 -0.736507
vn 0.436960 0.546639 -0.714319
vn 0.506849 0.514489 -0.691669
vn 0.506849 0.514489 -0.691669
vn 0.562178 0.389678 -0.729457
vn 0.499878 0.455718 -0.736507
vn 0.506849 -0.514489 -0.691669
vn 0.436960 -0.546639 -0.714319
vn 0.499878 -0.455718 -0.736507
vn 0.499878 -0.455718 -0.736507
vn 0.562178 -0.389678 -0.729457
vn 0.506849 -0.514489 -0.691669
vn -0.364260 -0.575270 0.732379
vn -0.495260 -0.424750 0.757829
vn -0.499878 -0.455718 0.736507
vn -0.499878 -0.455718 0.736507
vn -0.436960 -0.546639 0.714319
vn -0.364260 -0.575270 0.732379
vn -0.499878 0.455718 0.736507
vn -0.495260 0.424750 0.757829
vn -0.364260 0.575270 0.732379
vn -0.364260 0.575270 0.732379
vn -0.436960 0.546639 0.714319
vn -0.499878 0.455718 0.736507
vn -0.606220 0.257050 0.752610
vn -0.495260 0.424750 0.757829
vn -0.499878 0.455718 0.736507
vn -0.499878 0.455718 0.736507
vn -0.562178 0.389678 0.729457
vn -0.606220 0.257050 0.752610
vn 0.606220 0.257050 0.752610
vn 0.562178 0.389678 0.729457
vn 0.499878 0.455718 0.736507
vn 0.499878 0.455718 0.736507
vn 0.495260 0.424750 0.757829
vn 0.606220 0.257050 0.752610
vn 0.499878 0.455718 0.736507
vn 0.436960 0.546639 0.714319
vn 0.364260 0.575270 0.732379
vn 0.364260 0.575270 0.732379
vn 0.495260 0.424750 0.757829
vn 0.499878 0.455718 0.736507
vn 0.364260 -0.575270 0.732379
vn 0.436960 -0.546639 0.714319
vn 0.499878 -0.455718 0.736507
vn 0.499878 -0.455718 0.736507
vn 0.495260 -0.424750 0.757829
vn 0.364260 -0.575270 0.732379
vn 0.499878 -0.455718 0.736507
vn 0.562178 -0.389678 0.729457
vn 0.606220 -0.257050 0.752610
vn 0.606220 -0.257050 0.752610
vn 0.495260 -0.424750 0.757829
vn 0.499878 -0.455718 0.736507
vn -0.499878 -0.455718 0.736507
vn -0.495260 -0.424750 0.757829
vn -0.606220 -0.257050 0.752610
vn -0.606220 -0.257050 0.752610
vn -0.562178 -0.389678 0.729457
vn -0.499878 -0.455718 0.736507
vn -0.506849 -0.514489 0.691669
vn -0.436960 -0.546639 0.714319
vn -0.499878 -0.455718 0.736507
vn -0.499878 -0.455718 0.736507
vn -0.562178 -0.389678 0.729457
vn -0.506849 -0.514489 0.691669
vn -0.499878 0.455718 0.736507
vn -0.436960 0.546639 0.714319
vn -0.506849 0.514489 0.691669
vn -0.506849 0.514489 0.691669
vn -0.562178 0.389678 0.729457
vn -0.499878 0.455718 0.736507
vn 0.499878 0.455718 0.736507
vn 0.562178 0.389678 0.729457
vn 0.506849 0.514489 0.691669
vn 0.506849 0.514489 0.691669
vn 0.436960 0.546639 0.714319
vn 0.499878 0.455718 0.736507
vn 0.506849 -0.514489 0.691669
vn 0.562178 -0.389678 0.729457
vn 0.499878 -0.455718 0.736507
vn 0.499878 -0.455718 0.736507
vn 0.436960 -0.546639 0.714319
vn 0.506849 -0.514489 0.691669
vn -0.364260 -0.575270 -0.732379
vn -0.436960 -0.546639 -0.714319
vn -0.499878 -0.455718 -0.736507
vn -0.499878 -0.455718 -0.736507
vn -0.495260 -0.424750 -0.757829
vn -0.364260 -0.575270 -0.732379
vn -0.499878 0.455718 -0.736507
vn -0.436960 0.546639 -0.714319
vn -0.364260 0.575270 -0.732379
vn -0.364260 0.575270 -0.732379
vn -0.495260 0.424750 -0.757829
vn -0.499878 0.455718 -0.736507
vn -0.606220 0.257050 -0.752610
vn -0.562178 0.389678 -0.729457
vn -0.499878 0.455718 -0.736507
vn -0.499878 0.455718 -0.736507
vn -0.495260 0.424750 -0.757829
vn -0.606220 0.257050 -0.752610
vn 0.606220 0.257050 -0.752610
vn 0.495260 0.424750 -0.757829
vn 0.499878 0.455718 -0.736507
vn 0.499878 0.455718 -0.736507
vn 0.562178 0.389678 -0.729457
vn 0.606220 0.257050 -0.752610
vn 0.499878 0.455718 -0.736507
vn 0.495260 0.424750 -0.757829
vn 0.364260 0.575270 -0.732379
vn 0.364260 0.575270 -0.732379
vn 0.436960 0.546639 -0.714319
vn 0.499878 0.455718 -0.736507
vn 0.364260 -0.575270 -0.732379
vn 0.495260 -0.424750 -0.757829
vn 0.499878 -0.455718 -0.736507
vn 0.499878 -0.455718 -0.736507
vn 0.436960 -0.546639 -0.714319
vn 0.364260 -0.575270 -0.732379
vn 0.499878 -0.455718 -0.736507
vn 0.495260 -0.424750 -0.757829
vn 0.606220 -0.257050 -0.752610
vn 0.606220 -0.257050 -0.752610
vn 0.562178 -0.389678 -0.729457
vn 0.499878 -0.455718 -0.736507
vn -0.499878 -0.455718 -0.736507
vn -0.562178 -0.389678 -0.729457
vn -0.606220 -0.257050 -0.752610
vn -0.606220 -0.257050 -0.752610
vn -0.495260 -0.424750 -0.757829
vn -0.499878 -0.455718 -0.736507
vn -0.506849 -0.514489 -0.691669
vn -0.562178 -0.389678 -0.729457
vn -0.499878 -0.455718 -0.736507
vn -0.499878 -0.455718 -0.736507
vn -0.436960 -0.546639 -0.714319
vn -0.506849 -0.514489 -0.691669
vn -0.499878 0.455718 -0.736507
vn -0.562178 0.389678 -0.729457
vn -0.506849 0.514489 -0.691669
vn -0.506849 0.514489 -0.691669
vn -0.436960 0.546639 -0.714319
vn -0.499878 0.455718 -0.736507
vn 0.499878 0.455718 -0.736507
vn 0.436960 0.546639 -0.714319
vn 0.506849 0.514489 -0.691669
vn 0.506849 0.514489 -0.691669
vn 0.562178 0.389678 -0.729457
vn 0.499878 0.455718 -0.736507
vn 0.506849 -0.514489 -0.691669
vn 0.436960 -0.546639 -0.714319
vn 0.499878 -0.455718 -0.736507
vn 0.499878 -0.455718 -0.736507
vn 0.562178 -0.389678 -0.729457
vn 0.506849 -0.514489 -0.691669
vn -0.364258 -0.575276 0.732375
vn -0.495261 -0.424761 0.757822
vn -0.499878 -0.455718 0.736507
vn -0.499878 -0.455718 0.736507
vn -0.436960 -0.546639 0.714319
vn -0.364258 -0.575276 0.732375
vn -0.499878 0.455718 0.736507
vn -0.495261 0.424761 0.757822
vn -0.364258 0.575276 0.732375
vn -0.364258 0.575276 0.732375
vn -0.436960 0.546639 0.714319
vn -0.499878 0.455718 0.736507
vn -0.606227 0.257049 0.752606
vn -0.495261 0.424761 0.757822
vn -0.499878 0.455718 0.736507
vn -0.499878 0.455718 0.736507
vn -0.562182 0.389681 0.729452
vn -0.606227 0.257049 0.752606
vn 0.606227 0.257049 0.752606
vn 0.562182 0.389681 0.729452
vn 0.499878 0.455718 0.736507
vn 0.499878 0.455718 0.736507
vn 0.495261 0.424761 0.757822
vn 0.606227 0.257049 0.752606
vn 0.499878 0.455718 0.736507
vn 0.436960 0.546639 0.714319
vn 0.364258 0.575276 0.732375
vn 0.364258 0.575276 0.732375
vn 0.495261 0.424761 0.757822
vn 0.499878 0.455718 0.736507
vn 0.364258 -0.575276 0.732375
vn 0.436960 -0.546639 0.714319
vn 0.499878 -0.455718 0.736507
vn 0.499878 -0.455718 0.736507
vn 0.495261 -0.424761 0.757822
vn 0.364258 -0.575276 0.732375
vn 0.499878 -0.455718 0.736507
vn 0.562182 -0.389681 0.729452
vn 0.606227 -0.257049 0.752606
vn 0.606227 -0.257049 0.752606
vn 0.495261 -0.424761 0.757822
vn 0.499878 -0.455718 0.736507
vn -0.499878 -0.455718 0.736507
vn -0.495261 -0.424761 0.757822
vn -0.606227 -0.257049 0.752606
vn -0.606227 -0.257049 0.752606
vn -0.562182 -0.389681 0.729452
vn -0.499878 -0.455718 0.736507
vn -0.506852 -0.514492 0.691664
vn -0.436960 -0.546639 0.714319
vn -0.499878 -0.455718 0.736507
vn -0.499878 -0.455718 0.736507
vn -0.562182 -0.389681 0.729452
vn -0.506852 -0.514492 0.691664
vn -0.499878 0.455718 0.736507
vn -0.436960 0.546639 0.714319
vn -0.506852 0.514492 0.691664
vn -0.506852 0.514492 0.691664
vn -0.562182 0.389681 0.729452
vn -0.499878 0.455718 0.736507
vn 0.499878 0.455718 0.736507
vn 0.562182 0.389681 0.729452
vn 0.506852 0.514492 0.691664
vn 0.506852 0.514492 0.691664
vn 0.436960 0.546639 0.714319
vn 0.499878 0.455718 0.736507
vn 0.506852 -0.514492 0.691664
vn 0.562182 -0.389681 0.729452
vn 0.499878 -0.455718 0.736507
vn 0.499878 -0.455718 0.736507
vn 0.436960 -0.546639 0.714319
vn 0.506852 -0.514492 0.691664
vn -0.364258 -0.575276 -0.732375
vn -0.436960 -0.546639 -0.714319
vn -0.499878 -0.455718 -0.736507
vn -0.499878 -0.455718 -0.736507
vn -0.495261 -0.424761 -0.757822
vn -0.364258 -0.575276 -0.732375
vn -0.499878 0.455718 -0.736507
vn -0.436960 0.546639 -0.714319
vn -0.364258 0.575276 -0.732375
vn -0.364258 0.575276 -0.732375
vn -0.495261 0.424761 -0.757822
vn -0.499878 0.455718 -0.736507
vn -0.562182 0.389681 -0.729452
vn -0.499878 0.455718 -0.736507
vn -0.495261 0.424761 -0.757822
vn -0.562182 0.389681 -0.729452
vn -0.495261 0.424761 -0.757822
vn -0.606227 0.257049 -0.752606
vn 0.606227 0.257049 -0.752606
vn 0.495261 0.424761 -0.757822
vn 0.499878 0.455718 -0.736507
vn 0.499878 0.455718 -0.736507
vn 0.562182 0.389681 -0.729452
vn 0.606227 0.257049 -0.752606
vn 0.499878 0.455718 -0.736507
vn 0.495261 0.424761 -0.757822
vn 0.364258 0.575276 -0.732375
vn 0.364258 0.575276 -0.732375
vn 0.436960 0.546639 -0.714319
vn 0.499878 0.455718 -0.736507
vn 0.364258 -0.575276 -0.732375
vn 0.495261 -0.424761 -0.757822
vn 0.499878 -0.455718 -0.736507
vn 0.499878 -0.455718 -0.736507
vn 0.436960 -0.546639 -0.714319
vn 0.364258 -0.575276 -0.732375
vn 0.499878 -0.455718 -0.736507
vn 0.495261 -0.424761 -0.757822
vn 0.606227 -0.257049 -0.752606
vn 0.606227 -0.257049 -0.752606
vn 0.562182 -0.389681 -0.729452
vn 0.499878 -0.455718 -0.736507
vn -0.499878 -0.455718 -0.736507
vn -0.562182 -0.389681 -0.729452
vn -0.606227 -0.257049 -0.752606
vn -0.606227 -0.257049 -0.752606
vn -0.495261 -0.424761 -0.757822
vn -0.499878 -0.455718 -0.736507
vn -0.506852 -0.514492 -0.691664
vn -0.562182 -0.389681 -0.729452
vn -0.499878 -0.455718 -0.736507
vn -0.499878 -0.455718 -0.736507
vn -0.436960 -0.546639 -0.714319
vn -0.506852 -0.514492 -0.691664
vn -0.499878 0.455718 -0.736507
vn -0.562182 0.389681 -0.729452
vn -0.506852 0.514492 -0.691664
vn -0.506852 0.514492 -0.691664
vn -0.436960 0.546639 -0.714319
vn -0.499878 0.455718 -0.736507
vn 0.499878 0.455718 -0.736507
vn 0.436960 0.546639 -0.714319
vn 0.506852 0.514492 -0.691664
vn 0.506852 0.514492 -0.691664
vn 0.562182 0.389681 -0.729452
vn 0.499878 0.455718 -0.736507
vn 0.506852 -0.514492 -0.691664
vn 0.436960 -0.546639 -0.714319
vn 0.499878 -0.455718 -0.736507
vn 0.499878 -0.455718 -0.736507
vn 0.562182 -0.389681 -0.729452
vn 0.506852 -0.514492 -0.691664
s off
g polySurface5
usemtl middle
f 5/5/7 6/6/8 7/7/9
f 7/8/10 8/9/11 5/10/12
f 9/11/13 10/12/14 5/13/15
f 5/14/16 8/15/17 9/16/18
f 11/17/19 10/18/20 9/19/21
f 9/20/22 12/21/23 11/22/24
f 11/23/25 12/24/26 13/25/27
f 13/26/28 14/27/29 11/28/30
f 13/29/31 15/30/32 16/31/33
f 16/32/34 14/33/35 13/34/36
f 16/35/37 15/36/38 17/37/39
f 17/38/40 18/39/41 16/40/42
f 19/41/43 20/42/44 18/43/45
f 19/44/46 18/45/47 17/46/48
f 7/47/49 6/48/50 20/49/51
f 20/50/52 19/51/53 7/52/54
f 21/53/55 8/54/56 7/55/57
f 7/56/58 19/57/59 21/58/60
f 9/59/61 8/60/62 21/61/63
f 21/62/64 12/63/65 9/64/66
f 13/65/67 12/66/68 21/67/69
f 21/68/70 15/69/71 13/70/72
f 21/71/73 19/72/74 17/73/75
f 17/74/76 15/75/77 21/76/78
f 22/77/79 6/78/80 5/79/81
f 23/80/82 22/81/83 5/82/84
f 24/83/85 23/84/86 5/85/87
f 5/86/88 10/87/89 24/88/90
f 11/89/91 25/90/92 24/91/93
f 24/92/94 10/93/95 11/94/96
f 11/95/97 14/96/98 26/97/99
f 26/98/100 25/99/101 11/100/102
f 26/101/103 14/102/104 16/103/105
f 16/104/106 27/105/107 26/106/108
f 16/107/109 18/108/110 28/109/111
f 28/110/112 27/111/113 16/112/114
f 28/113/115 18/114/116 20/115/117
f 20/116/118 29/117/119 28/118/120
f 22/119/121 29/120/122 20/121/123
f 20/122/124 6/123/125 22/124/126
f 30/125/127 29/126/128 22/127/129
f 22/128/130 23/129/131 30/130/132
f 24/131/133 25/132/134 30/133/135
f 30/134/136 23/135/137 24/136/138
f 26/137/139 27/138/140 30/139/141
f 30/140/142 25/141/143 26/142/144
f 30/143/145 27/144/146 28/145/147
f 28/146/148 29/147/149 30/148/150
f 31/149/151 32/150/152 33/151/153
f 33/151/154 34/152/155 31/149/156
f 35/153/157 36/154/158 31/149/159
f 31/149/160 34/152/161 35/153/162
f 37/155/163 36/154/164 35/153/165
f 35/153/166 38/156/167 37/155/168
f 37/155/169 38/156/170 39/157/171
f 39/157/172 40/158/173 37/155/174
f 39/157/175 41/159/176 42/160/177
f 42/160/178 40/158/179 39/157/180
f 42/160/181 41/159/182 43/161/183
f 43/161/184 44/162/185 42/160/186
f 43/161/187 45/163/188 46/164/189
f 46/164/190 44/162/191 43/161/192
f 33/151/193 32/150/194 46/164/195
f 46/164/196 45/163/197 33/151/198
f 47/165/199 34/152/200 33/151/201
f 33/151/202 45/163/203 47/165/204
f 35/153/205 34/152/206 47/165/207
f 47/165/208 38/156/209 35/153/210
f 39/157/211 38/156/212 47/165/213
f 47/165/214 41/159/215 39/157/216
f 47/165/217 45/163/218 43/161/219
f 43/161/220 41/159/221 47/165/222
f 31/149/223 48/166/224 49/167/225
f 49/168/226 32/150/227 31/149/228
f 50/169/229 48/170/230 31/149/231
f 31/149/232 36/154/233 50/171/234
f 37/155/235 51/172/236 50/173/237
f 50/174/238 36/154/239 37/155/240
f 37/155/241 40/158/242 52/175/243
f 52/176/244 51/177/245 37/155/246
f 52/178/247 40/158/248 42/160/249
f 42/160/250 53/179/251 52/180/252
f 42/160/253 44/162/254 54/181/255
f 54/182/256 53/183/257 42/160/258
f 54/184/259 44/162/260 46/164/261
f 46/164/262 55/185/263 54/186/264
f 49/187/265 55/188/266 46/164/267
f 46/164/268 32/150/269 49/189/270
f 56/190/271 55/191/272 49/192/273
f 49/193/274 48/194/275 56/195/276
f 50/196/277 51/197/278 56/198/279
f 56/199/280 48/200/281 50/201/282
f 52/202/283 53/203/284 56/204/285
f 56/205/286 51/206/287 52/207/288
f 56/208/289 53/209/290 54/210/291
f 54/211/292 55/212/293 56/213/294
f 57/214/295 58/215/296 59/216/297
f 59/216/298 60/217/299 57/214/300
f 61/218/301 62/219/302 57/214/303
f 57/214/304 60/217/305 61/218/306
f 63/220/307 62/219/308 61/218/309
f 61/218/310 64/221/311 63/220/312
f 63/220/313 64/221/314 65/222/315
f 65/222/316 66/223/317 63/220/318
f 65/222/319 67/224/320 68/225/321
f 68/225/322 66/223/323 65/222/324
f 68/225/325 67/224/326 69/226/327
f 69/226/328 70/227/329 68/225/330
f 69/226/331 71/228/332 72/229/333
f 72/229/334 70/227/335 69/226/336
f 59/216/337 58/215/338 72/229/339
f 72/229/340 71/228/341 59/216/342
f 73/230/343 60/217/344 59/216/345
f 59/216/346 71/228/347 73/230/348
f 61/218/349 60/217/350 73/230/351
f 73/230/352 64/221/353 61/218/354
f 65/222/355 64/221/356 73/230/357
f 73/230/358 67/224/359 65/222/360
f 73/230/361 71/228/362 69/226/363
f 69/226/364 67/224/365 73/230/366
f 57/214/367 74/231/368 75/232/369
f 75/233/370 58/215/371 57/214/372
f 76/234/373 74/235/374 57/214/375
f 57/214/376 62/219/377 76/236/378
f 77/237/379 76/238/380 62/219/381
f 77/239/382 62/219/383 63/220/384
f 63/220/385 66/223/386 78/240/387
f 78/241/388 77/242/389 63/220/390
f 78/243/391 66/223/392 68/225/393
f 68/225/394 79/244/395 78/245/396
f 68/225/397 70/227/398 80/246/399
f 80/247/400 79/248/401 68/225/402
f 80/249/403 70/227/404 72/229/405
f 72/229/406 81/250/407 80/251/408
f 75/252/409 81/253/410 72/229/411
f 72/229/412 58/215/413 75/254/414
f 82/255/415 81/256/416 75/257/417
f 75/258/418 74/259/419 82/260/420
f 76/261/421 77/262/422 82/263/423
f 82/264/424 74/265/425 76/266/426
f 78/267/427 79/268/428 82/269/429
f 82/270/430 77/271/431 78/272/432
f 82/273/433 79/274/434 80/275/435
f 80/276/436 81/277/437 82/278/438
g default
v 0.047721 0.717973 0.445631
v 0.227061 0.675299 0.515576
v 0.010939 0.706975 0.573089
v 0.014182 0.606305 0.371804
v 0.042221 0.496101 0.636860
v -0.032925 0.535568 0.505614
v -0.029672 0.412779 0.520799
v 0.049301 0.410947 0.375882
v 0.102142 0.390261 0.676179
v 0.138277 0.240389 0.634428
v 0.046323 0.231681 0.525056
v 0.121219 0.217531 0.418819
v 0.318481 0.085420 0.517284
v 0.100696 0.691032 0.641899
v 0.550821 1.088531 0.750479
v 0.384989 0.968998 0.659756
v 0.638748 1.096218 0.767926
v 0.582051 1.050034 0.775876
v 0.265453 0.835789 0.297086
v 0.269804 0.666717 0.324284
v 0.371929 0.848841 0.270859
v 0.312003 0.869951 0.264236
v 0.675771 1.077510 0.679714
v 0.675738 1.048928 0.756746
v 0.638748 1.096218 0.767926
v 0.384989 0.968998 0.659756
v 0.265453 0.835789 0.297086
v 0.312003 0.869951 0.264236
v 0.371929 0.848841 0.270859
v 0.269804 0.666717 0.324284
v 0.419054 0.878751 0.303739
v 0.357891 1.025084 0.411253
v 0.255699 0.826391 0.388255
v 0.262653 0.871715 0.364968
v 0.675738 1.048928 0.756746
v 0.638748 1.096218 0.767926
v 0.582051 1.050034 0.775876
v 0.622536 0.904771 0.766145
v 0.685231 1.026842 0.672102
v 0.675771 1.077510 0.679714
v 0.384989 0.968998 0.659756
v 0.550821 1.088531 0.750479
v 0.265453 0.835789 0.297086
v 0.312003 0.869951 0.264236
v 0.357891 1.025084 0.411253
v 0.262653 0.871715 0.364968
v 0.255699 0.826391 0.388255
v 0.269804 0.666717 0.324284
v 0.265453 0.835789 0.297086
v 0.262653 0.871715 0.364968
v 0.419054 0.878751 0.303739
v 0.357891 1.025084 0.411253
v 0.312003 0.869951 0.264236
v 0.371929 0.848841 0.270859
v 0.685231 1.026842 0.672102
v 0.622536 0.904771 0.766145
v 0.675738 1.048928 0.756746
v 0.675771 1.077510 0.679714
v 0.622536 0.904771 0.766145
v 0.582051 1.050034 0.775876
v 0.638748 1.096218 0.767926
v 0.675738 1.048928 0.756746
v 0.675771 1.077510 0.679714
v 0.685231 1.026842 0.672102
v 0.384989 0.968998 0.659756
v 0.550821 1.088531 0.750479
v 0.269804 0.666717 0.324284
v 0.371929 0.848841 0.270859
v 0.312003 0.869951 0.264236
v 0.265453 0.835789 0.297086
v 0.357891 1.025084 0.411253
v 0.419054 0.878751 0.303739
v 0.262653 0.871715 0.364968
v 0.255699 0.826391 0.388255
v 1.011084 0.560085 0.502576
v 0.856652 0.678198 0.489831
v 0.838609 0.980317 0.403812
v 0.970718 0.556665 0.400327
v 0.892489 0.393964 0.275852
v 0.830127 0.592703 0.247749
v 1.038213 0.416812 0.519833
v 0.797915 0.655308 0.657481
v 0.733739 1.001943 0.545022
v 0.843702 0.711376 0.568283
v 0.992137 0.492224 0.659266
v 0.982276 0.290524 0.513823
v 0.905329 0.151839 0.481725
v 0.877931 0.159037 0.639831
v 0.909468 0.335276 0.593465
v 0.758065 0.072790 0.527172
v 0.780260 0.053538 0.431731
v 0.688798 0.039883 0.359514
v 0.604437 0.210975 0.501152
v 0.769464 0.144201 0.293098
v 0.831164 0.283836 0.284941
v 0.946618 0.409198 0.629181
v 0.949244 0.665108 0.556963
v 0.227061 0.675299 0.515576
v 0.010939 0.706975 0.573089
v 0.014182 0.606305 0.371804
v 0.047721 0.717973 0.445631
v 0.042221 0.496101 0.636860
v -0.032925 0.535568 0.505614
v 0.049301 0.410947 0.375882
v -0.029672 0.412779 0.520799
v 0.102142 0.390261 0.676179
v 0.138277 0.240389 0.634428
v 0.046323 0.231681 0.525056
v 0.121219 0.217531 0.418819
v 0.318481 0.085420 0.517284
v 0.100696 0.691032 0.641899
v 0.452343 0.453051 0.500000
v 0.476555 0.476903 0.544392
v 0.472052 0.500000 0.552919
v 0.350824 0.500000 0.500000
v 0.452343 0.546949 0.500000
v 0.476555 0.523097 0.544392
v 0.500000 0.527533 0.552919
v 0.500000 0.708366 0.500000
v 0.523445 0.523097 0.544392
v 0.547657 0.546949 0.500000
v 0.527948 0.500000 0.552919
v 0.649176 0.500000 0.500000
v 0.523445 0.476903 0.544392
v 0.547657 0.453051 0.500000
v 0.500000 0.472467 0.552919
v 0.500000 0.291634 0.500000
v 0.500000 0.500000 0.586616
v 0.472052 0.500000 0.501903
v 0.476555 0.476903 0.455608
v 0.476555 0.523097 0.510430
v 0.500000 0.527533 0.447081
v 0.523445 0.523097 0.455608
v 0.527948 0.500000 0.447081
v 0.523445 0.476903 0.455608
v 0.500000 0.472467 0.447081
v 0.500000 0.500000 0.413384
v 0.428263 0.429329 0.500000
v 0.464709 0.465233 0.566823
v 0.457930 0.500000 0.579658
v 0.255027 0.571065 0.500000
v 0.428263 0.570671 0.500000
v 0.464709 0.534767 0.566823
v 0.500000 0.541445 0.579658
v 0.544729 0.813648 0.500000
v 0.535291 0.534767 0.566823
v 0.571737 0.570671 0.500000
v 0.542070 0.500000 0.579658
v 0.747912 0.448168 0.500000
v 0.535291 0.465233 0.566823
v 0.571737 0.429329 0.500000
v 0.500000 0.458555 0.579658
v 0.445305 0.215733 0.500000
v 0.500000 0.500000 0.630381
v 0.457930 0.500000 0.475164
v 0.464709 0.465233 0.433177
v 0.464709 0.534767 0.433177
v 0.500000 0.541445 0.420342
v 0.535291 0.534767 0.433177
v 0.542070 0.500000 0.420342
v 0.535291 0.465233 0.433177
v 0.500000 0.458555 0.420342
v 0.500000 0.500000 0.424441
v 0.398795 0.400298 0.500000
v 0.450212 0.450951 0.594272
v 0.440649 0.500000 0.612379
v 0.325715 0.274658 0.500000
v 0.398795 0.599702 0.500000
v 0.450212 0.549049 0.594272
v 0.500000 0.558470 0.612379
v 0.312841 0.731180 0.500000
v 0.549788 0.549049 0.594272
v 0.601205 0.599702 0.500000
v 0.559351 0.500000 0.612379
v 0.723985 0.683858 0.500000
v 0.549788 0.450951 0.594272
v 0.601205 0.400298 0.500000
v 0.500000 0.441530 0.612379
v 0.755506 0.310338 0.500000
v 0.500000 0.500000 0.643094
v 0.440649 0.500000 0.387621
v 0.450212 0.450951 0.405728
v 0.450212 0.549049 0.405728
v 0.500000 0.558470 0.387621
v 0.549788 0.549049 0.405728
v 0.559351 0.500000 0.387621
v 0.549788 0.450951 0.405728
v 0.500000 0.441530 0.387621
v 0.500000 0.500000 0.370883
v 0.733739 0.860054 0.545022
v 0.946618 0.409198 0.629181
v 0.992137 0.492224 0.659266
v 1.011084 0.560085 0.502576
v 1.038213 0.416812 0.519833
v 0.949244 0.665108 0.556963
v 0.843702 0.711376 0.568283
v 0.970718 0.556665 0.400327
v 0.838609 0.980317 0.403812
v 0.856652 0.678198 0.489831
v 0.830127 0.592703 0.247749
v 0.892489 0.393964 0.275852
v 0.733739 0.860054 0.545022
v 0.797915 0.655308 0.657481
v 0.909468 0.335276 0.593465
v 0.877931 0.159037 0.639831
v 0.905329 0.151839 0.481725
v 0.982276 0.290524 0.513823
v 0.780260 0.053538 0.431731
v 0.758065 0.072790 0.527172
v 0.604437 0.210975 0.501152
v 0.688798 0.039883 0.359514
v 0.769464 0.144201 0.293098
v 0.831164 0.283836 0.284941
v 0.831164 0.283836 0.284941
v 0.982276 0.290524 0.513823
v 1.038213 0.416812 0.519833
v 0.892489 0.393964 0.275852
v 0.780260 0.053538 0.431731
v 0.758065 0.072790 0.527172
v 0.877931 0.159037 0.639831
v 0.905329 0.151839 0.481725
v 0.946618 0.409198 0.629181
v 1.038213 0.416812 0.519833
v 0.982276 0.290524 0.513823
v 0.909468 0.335276 0.593465
v 0.831164 0.283836 0.284941
v 0.769464 0.144201 0.293098
v 0.905329 0.151839 0.481725
v 0.982276 0.290524 0.513823
v 0.780260 0.053538 0.431731
v 0.905329 0.151839 0.481725
v 0.769464 0.144201 0.293098
v 0.688798 0.039883 0.359514
v 0.830127 0.592703 0.247749
v 0.892489 0.393964 0.275852
v 0.970718 0.556665 0.400327
v 0.838609 0.980317 0.403812
v 0.970718 0.556665 0.400327
v 1.011084 0.560085 0.502576
v 0.856652 0.678198 0.489831
v 0.838609 0.980317 0.403812
v 0.909468 0.335276 0.593465
v 0.982276 0.290524 0.513823
v 0.905329 0.151839 0.481725
v 0.877931 0.159037 0.639831
v 0.992137 0.492224 0.659266
v 0.797915 0.655308 0.657481
v 0.733739 1.001943 0.545022
v 0.843702 0.711376 0.568283
v 1.011084 0.560085 0.502576
v 0.970718 0.556665 0.400327
v 0.892489 0.393964 0.275852
v 1.038213 0.416812 0.519833
vt 0.872900 0.335360
vt 0.902070 0.025020
vt 0.919370 0.339900
vt 0.847660 0.447870
vt 0.938870 0.585790
vt 0.896070 0.478000
vt 0.900660 0.618890
vt 0.846320 0.653660
vt 0.980360 0.716640
vt 0.979470 0.944250
vt 0.915360 0.759390
vt 0.858030 0.816500
vt 0.905230 0.976410
vt 0.951740 0.330570
vt 0.467250 0.076040
vt 0.476090 0.021970
vt 0.488500 0.142890
vt 0.465060 0.089460
vt 0.232630 0.249130
vt 0.232770 0.376800
vt 0.194150 0.257110
vt 0.221800 0.258200
vt 0.503620 0.123430
vt 0.485930 0.151610
vt 0.488500 0.142890
vt 0.476090 0.021970
vt 0.232630 0.249130
vt 0.221800 0.258200
vt 0.194150 0.257110
vt 0.232770 0.376800
vt 0.204060 0.219190
vt 0.234070 0.104310
vt 0.240330 0.275050
vt 0.242900 0.240520
vt 0.485930 0.151610
vt 0.488500 0.142890
vt 0.465060 0.089460
vt 0.475800 0.186060
vt 0.496000 0.140590
vt 0.503620 0.123430
vt 0.476090 0.021970
vt 0.467250 0.076040
vt 0.232630 0.249130
vt 0.221800 0.258200
vt 0.234070 0.104310
vt 0.242900 0.240520
vt 0.240330 0.275050
vt 0.232770 0.376800
vt 0.232630 0.249130
vt 0.242900 0.240520
vt 0.204060 0.219190
vt 0.234070 0.104310
vt 0.221800 0.258200
vt 0.194150 0.257110
vt 0.496000 0.140590
vt 0.475800 0.186060
vt 0.485930 0.151610
vt 0.503620 0.123430
vt 0.485930 0.151610
vt 0.475800 0.186060
vt 0.465060 0.089460
vt 0.488500 0.142890
vt 0.506910 0.529280
vt 0.515870 0.450200
vt 0.554760 0.401480
vt 0.550190 0.494020
vt 0.542160 0.328110
vt 0.528280 0.247260
vt 0.582520 0.406560
vt 0.597010 0.041700
vt 0.564440 0.294050
vt 0.661170 0.384840
vt 0.640860 0.558340
vt 0.543560 0.015510
vt 0.496300 0.314330
vt 0.498860 0.600400
vt 0.512520 0.704390
vt 0.564340 0.699950
vt 0.552470 0.589850
vt 0.608660 0.808640
vt 0.553450 0.834110
vt 0.621870 0.973130
vt 0.654960 0.834920
vt 0.640510 0.736540
vt 0.631880 0.622200
vt 0.631880 0.622200
vt 0.552470 0.589850
vt 0.550190 0.494020
vt 0.640860 0.558340
vt 0.608660 0.808640
vt 0.553450 0.834110
vt 0.512520 0.704390
vt 0.564340 0.699950
vt 0.506910 0.529280
vt 0.550190 0.494020
vt 0.552470 0.589850
vt 0.498860 0.600400
vt 0.631880 0.622200
vt 0.640510 0.736540
vt 0.564340 0.699950
vt 0.552470 0.589850
vt 0.608660 0.808640
vt 0.564340 0.699950
vt 0.640510 0.736540
vt 0.654960 0.834920
vt 0.661170 0.384840
vt 0.640860 0.558340
vt 0.582520 0.406560
vt 0.597010 0.041700
vt 0.582520 0.406560
vt 0.554760 0.401480
vt 0.564440 0.294050
vt 0.597010 0.041700
vt 0.498860 0.600400
vt 0.552470 0.589850
vt 0.564340 0.699950
vt 0.512520 0.704390
vt 0.515870 0.450200
vt 0.496300 0.314330
vt 0.543560 0.015510
vt 0.528280 0.247260
vt 0.554760 0.401480
vt 0.582520 0.406560
vt 0.640860 0.558340
vt 0.550190 0.494020
vn 0.870740 -0.443200 0.213040
vn 0.870740 -0.443200 0.213040
vn 0.893028 -0.352519 -0.279699
vn 0.893028 -0.352519 -0.279699
vn 0.969810 -0.175720 0.169090
vn 0.870740 -0.443200 0.213040
vn 0.893028 -0.352519 -0.279699
vn 0.827429 -0.147110 -0.541959
vn 0.993529 0.011550 -0.112990
vn 0.993529 0.011550 -0.112990
vn 0.969810 -0.175720 0.169090
vn 0.893028 -0.352519 -0.279699
vn 0.832511 0.335130 0.441150
vn 0.832511 0.335130 0.441150
vn 0.969810 -0.175720 0.169090
vn 0.969810 -0.175720 0.169090
vn 0.993529 0.011550 -0.112990
vn 0.832511 0.335130 0.441150
vn 0.827429 -0.147110 -0.541959
vn 0.756452 0.305491 -0.578322
vn 0.756452 0.305491 -0.578322
vn 0.756452 0.305491 -0.578322
vn 0.993529 0.011550 -0.112990
vn 0.827429 -0.147110 -0.541959
vn 0.756452 0.305491 -0.578322
vn 0.606897 0.722296 -0.331608
vn 0.703060 0.706800 -0.078360
vn 0.703060 0.706800 -0.078360
vn 0.756452 0.305491 -0.578322
vn 0.756452 0.305491 -0.578322
vn 0.832511 0.335130 0.441150
vn 0.703060 0.706800 -0.078360
vn 0.654498 0.733458 0.183499
vn 0.654498 0.733458 0.183499
vn 0.832511 0.335130 0.441150
vn 0.832511 0.335130 0.441150
vn 0.703060 0.706800 -0.078360
vn 0.606897 0.722296 -0.331608
vn 0.502449 0.861588 -0.072190
vn 0.502449 0.861588 -0.072190
vn 0.654498 0.733458 0.183499
vn 0.703060 0.706800 -0.078360
vn 0.893028 -0.352519 -0.279699
vn 0.540359 -0.318789 -0.778708
vn 0.540359 -0.318789 -0.778708
vn 0.540359 -0.318789 -0.778708
vn 0.827429 -0.147110 -0.541959
vn 0.893028 -0.352519 -0.279699
vn -0.870740 0.443200 -0.213040
vn -0.969810 0.175720 -0.169090
vn -0.893028 0.352519 0.279699
vn -0.893028 0.352519 0.279699
vn -0.870740 0.443200 -0.213040
vn -0.870740 0.443200 -0.213040
vn -0.893028 0.352519 0.279699
vn -0.969810 0.175720 -0.169090
vn -0.993529 -0.011550 0.112990
vn -0.993529 -0.011550 0.112990
vn -0.827429 0.147110 0.541959
vn -0.893028 0.352519 0.279699
vn -0.832511 -0.335130 -0.441150
vn -0.993529 -0.011550 0.112990
vn -0.969810 0.175720 -0.169090
vn -0.969810 0.175720 -0.169090
vn -0.832511 -0.335130 -0.441150
vn -0.832511 -0.335130 -0.441150
vn -0.827429 0.147110 0.541959
vn -0.993529 -0.011550 0.112990
vn -0.756452 -0.305491 0.578322
vn -0.756452 -0.305491 0.578322
vn -0.756452 -0.305491 0.578322
vn -0.827429 0.147110 0.541959
vn -0.756452 -0.305491 0.578322
vn -0.756452 -0.305491 0.578322
vn -0.703060 -0.706800 0.078360
vn -0.703060 -0.706800 0.078360
vn -0.606897 -0.722296 0.331608
vn -0.756452 -0.305491 0.578322
vn -0.832511 -0.335130 -0.441150
vn -0.832511 -0.335130 -0.441150
vn -0.654498 -0.733458 -0.183499
vn -0.654498 -0.733458 -0.183499
vn -0.703060 -0.706800 0.078360
vn -0.832511 -0.335130 -0.441150
vn -0.703060 -0.706800 0.078360
vn -0.654498 -0.733458 -0.183499
vn -0.502449 -0.861588 0.072190
vn -0.502449 -0.861588 0.072190
vn -0.606897 -0.722296 0.331608
vn -0.703060 -0.706800 0.078360
vn -0.893028 0.352519 0.279699
vn -0.827429 0.147110 0.541959
vn -0.540359 0.318789 0.778708
vn -0.540359 0.318789 0.778708
vn -0.540359 0.318789 0.778708
vn -0.893028 0.352519 0.279699
vn -0.130546 -0.478102 0.868549
vn -0.130546 -0.478102 0.868548
vn -0.130546 -0.478102 0.868548
vn -0.059166 -0.768705 0.636862
vn -0.059166 -0.768705 0.636862
vn -0.059166 -0.768705 0.636862
vn 0.217480 0.160476 0.962783
vn 0.217480 0.160476 0.962783
vn 0.217480 0.160476 0.962782
vn 0.204689 0.238024 0.949446
vn 0.204689 0.238024 0.949446
vn 0.204689 0.238024 0.949446
vn -0.793451 -0.570510 -0.212022
vn -0.793451 -0.570510 -0.212022
vn -0.793451 -0.570510 -0.212022
vn 0.169634 -0.947205 0.272078
vn 0.169634 -0.947205 0.272078
vn 0.169634 -0.947205 0.272078
vn -0.174960 -0.389609 -0.904209
vn -0.174960 -0.389609 -0.904209
vn -0.174960 -0.389609 -0.904209
vn -0.174960 -0.389609 -0.904209
vn -0.174960 -0.389609 -0.904209
vn -0.174960 -0.389609 -0.904209
vn 0.219000 0.618560 -0.754601
vn 0.219000 0.618560 -0.754601
vn 0.219000 0.618560 -0.754601
vn 0.219000 0.618560 -0.754601
vn 0.219000 0.618560 -0.754601
vn 0.219000 0.618560 -0.754601
vn -0.994203 0.029870 -0.103290
vn -0.910641 0.330730 -0.247690
vn -0.910641 0.330730 -0.247690
vn -0.910641 0.330730 -0.247690
vn -0.994203 0.029870 -0.103290
vn -0.994203 0.029870 -0.103290
vn -0.910641 0.330730 -0.247690
vn -0.910641 0.330730 -0.247690
vn -0.719299 0.592459 -0.362769
vn -0.719299 0.592459 -0.362769
vn -0.719299 0.592459 -0.362769
vn -0.910641 0.330730 -0.247690
vn 0.199401 -0.042800 0.978983
vn -0.006350 0.219299 0.975637
vn -0.006350 0.219299 0.975637
vn -0.006350 0.219299 0.975637
vn 0.199401 -0.042800 0.978983
vn 0.199401 -0.042800 0.978983
vn 0.988007 -0.080440 0.131800
vn 0.950625 0.247131 0.187721
vn 0.950625 0.247131 0.187721
vn 0.950625 0.247131 0.187721
vn 0.988007 -0.080440 0.131800
vn 0.988007 -0.080440 0.131800
vn 0.950625 0.247131 0.187721
vn 0.806932 0.547072 0.222651
vn 0.806932 0.547072 0.222651
vn 0.806932 0.547072 0.222651
vn 0.950625 0.247131 0.187721
vn 0.950625 0.247131 0.187721
vn -0.211389 0.457048 0.863957
vn -0.006350 0.219299 0.975637
vn -0.006350 0.219299 0.975637
vn -0.006350 0.219299 0.975637
vn -0.211389 0.457048 0.863957
vn -0.211389 0.457048 0.863957
vn 0.708281 -0.584563 0.395758
vn 0.708281 -0.584563 0.395758
vn 0.708281 -0.584562 0.395758
vn 0.729066 -0.577544 0.367294
vn 0.729066 -0.577544 0.367294
vn 0.729066 -0.577544 0.367294
vn 0.992908 0.043360 0.110699
vn 0.992908 0.043360 0.110699
vn 0.992908 0.043360 0.110699
vn 0.994092 0.013298 0.107727
vn 0.994092 0.013298 0.107727
vn 0.994092 0.013298 0.107727
vn -0.220699 -0.635718 0.739699
vn -0.220699 -0.635718 0.739699
vn -0.220699 -0.635718 0.739699
vn -0.227025 -0.617799 0.752851
vn -0.227025 -0.617799 0.752851
vn -0.227025 -0.617799 0.752851
vn -0.925083 0.329045 -0.189607
vn -0.925083 0.329045 -0.189607
vn -0.925083 0.329045 -0.189607
vn -0.962821 0.214668 -0.163995
vn -0.962821 0.214668 -0.163995
vn -0.962821 0.214668 -0.163995
vn -0.199401 0.042800 -0.978983
vn -0.199401 0.042800 -0.978983
vn 0.006350 -0.219299 -0.975637
vn 0.006350 -0.219299 -0.975637
vn 0.006350 -0.219299 -0.975637
vn -0.199401 0.042800 -0.978983
vn -0.886645 0.453746 0.089300
vn -0.886645 0.453746 0.089300
vn -0.886645 0.453746 0.089300
vn -0.928546 0.095788 -0.358647
vn -0.928546 0.095788 -0.358647
vn -0.928546 0.095788 -0.358647
vn -0.653251 -0.499021 -0.569421
vn -0.948393 -0.249841 -0.195271
vn -0.753831 -0.314560 -0.576881
vn -0.753831 -0.314560 -0.576881
vn -0.596812 -0.531862 -0.600782
vn -0.653251 -0.499021 -0.569421
vn 0.935752 0.303430 -0.179720
vn 0.786837 0.576778 0.219579
vn 0.786837 0.576778 0.219579
vn 0.786837 0.576778 0.219579
vn 0.948393 0.249841 0.195271
vn 0.935752 0.303430 -0.179720
vn 0.579338 0.113430 -0.807156
vn 0.579338 0.113430 -0.807156
vn 0.579338 0.113430 -0.807156
vn 0.579338 0.113430 -0.807156
vn 0.748850 0.000120 -0.662740
vn 0.579338 0.113430 -0.807156
vn 0.948393 0.249841 0.195271
vn 0.952482 -0.114170 -0.282390
vn 0.748850 0.000120 -0.662740
vn 0.748850 0.000120 -0.662740
vn 0.935752 0.303430 -0.179720
vn 0.948393 0.249841 0.195271
vn 0.753831 0.314560 0.576881
vn 0.596812 0.531862 0.600782
vn 0.537238 0.561917 0.628987
vn 0.537238 0.561917 0.628987
vn 0.537238 0.561917 0.628987
vn 0.753831 0.314560 0.576881
vn 0.760149 -0.353349 0.545269
vn 0.733862 -0.582251 0.349901
vn 0.789749 -0.605089 -0.100820
vn 0.789749 -0.605089 -0.100820
vn 0.940282 -0.339801 -0.020140
vn 0.760149 -0.353349 0.545269
vn 0.613567 -0.778466 -0.132389
vn 0.789749 -0.605089 -0.100820
vn 0.733862 -0.582251 0.349901
vn 0.733862 -0.582251 0.349901
vn 0.598838 -0.799348 0.049350
vn 0.613567 -0.778466 -0.132389
vn 0.613567 -0.778466 -0.132389
vn 0.598838 -0.799348 0.049350
vn 0.666510 -0.737610 -0.108150
vn 0.666510 -0.737610 -0.108150
vn 0.635817 -0.711997 -0.297989
vn 0.613567 -0.778466 -0.132389
vn 0.613567 -0.778466 -0.132389
vn 0.635817 -0.711997 -0.297989
vn 0.692032 -0.511231 -0.509641
vn 0.692032 -0.511231 -0.509641
vn 0.789749 -0.605089 -0.100820
vn 0.613567 -0.778466 -0.132389
vn 0.790501 -0.207330 -0.576301
vn 0.940282 -0.339801 -0.020140
vn 0.789749 -0.605089 -0.100820
vn 0.789749 -0.605089 -0.100820
vn 0.692032 -0.511231 -0.509641
vn 0.790501 -0.207330 -0.576301
vn 0.786676 -0.324658 0.525107
vn 0.760149 -0.353349 0.545269
vn 0.940282 -0.339801 -0.020140
vn 0.940282 -0.339801 -0.020140
vn 0.639960 -0.444450 0.626830
vn 0.786676 -0.324658 0.525107
vn 0.790501 -0.207330 -0.576301
vn 0.748850 0.000120 -0.662740
vn 0.952482 -0.114170 -0.282390
vn 0.952482 -0.114170 -0.282390
vn 0.940282 -0.339801 -0.020140
vn 0.790501 -0.207330 -0.576301
vn 0.786676 -0.324658 0.525107
vn 0.952482 -0.114170 -0.282390
vn 0.948393 0.249841 0.195271
vn 0.948393 0.249841 0.195271
vn 0.753831 0.314560 0.576881
vn 0.786676 -0.324658 0.525107
vn 0.653251 0.499021 0.569421
vn 0.596812 0.531862 0.600782
vn 0.753831 0.314560 0.576881
vn 0.753831 0.314560 0.576881
vn 0.948393 0.249841 0.195271
vn 0.653251 0.499021 0.569421
vn -0.793065 0.326810 0.514046
vn -0.793065 0.326810 0.514046
vn -0.793065 0.326810 0.514046
vn -0.788276 0.397105 0.470030
vn -0.788276 0.397105 0.470030
vn -0.788276 0.397105 0.470030
vn -0.384262 0.883592 -0.267596
vn -0.384262 0.883592 -0.267596
vn -0.384262 0.883592 -0.267596
vn -0.508815 0.840280 -0.187181
vn -0.508815 0.840280 -0.187181
vn -0.508815 0.840280 -0.187181
vn -0.729675 0.351121 -0.586761
vn -0.729675 0.351121 -0.586761
vn -0.729675 0.351121 -0.586761
vn -0.637744 0.429739 -0.639223
vn -0.637745 0.429739 -0.639223
vn -0.637744 0.429739 -0.639223
vn -0.761580 0.367692 0.533665
vn -0.761580 0.367692 0.533665
vn -0.761580 0.367692 0.533665
vn -0.779490 0.343234 0.524009
vn -0.779490 0.343234 0.524009
vn -0.779490 0.343234 0.524009
vn -0.656258 0.607060 0.448111
vn -0.656258 0.607060 0.448111
vn -0.656258 0.607060 0.448111
vn -0.600004 0.647329 0.470064
vn -0.600004 0.647329 0.470064
vn -0.600004 0.647329 0.470064
vn -0.744434 -0.141317 0.652571
vn -0.744434 -0.141317 0.652571
vn -0.744434 -0.141317 0.652571
vn -0.743350 -0.207108 0.636033
vn -0.743350 -0.207108 0.636033
vn -0.743350 -0.207108 0.636033
vn -0.599826 -0.755989 0.262085
vn -0.599826 -0.755989 0.262085
vn -0.599826 -0.755989 0.262085
vn -0.794253 -0.427463 -0.431785
vn -0.794253 -0.427463 -0.431785
vn -0.794253 -0.427463 -0.431785
vn -0.515567 0.454211 -0.726555
vn -0.515567 0.454211 -0.726555
vn -0.515567 0.454211 -0.726555
vn -0.862019 0.277735 -0.424012
vn -0.862019 0.277735 -0.424012
vn -0.862019 0.277735 -0.424012
vn -0.279539 -0.342729 -0.896881
vn -0.279539 -0.342730 -0.896881
vn -0.279539 -0.342729 -0.896880
vn -0.637321 -0.461416 -0.617186
vn -0.637321 -0.461416 -0.617186
vn -0.637321 -0.461416 -0.617186
vn -0.918743 0.168571 0.357064
vn -0.918743 0.168571 0.357064
vn -0.918743 0.168571 0.357064
vn -0.880059 -0.019286 0.474473
vn -0.880059 -0.019286 0.474473
vn -0.880059 -0.019286 0.474473
s off
g polySurface2
usemtl initialShadingGroup
f 83/279/439 84/280/440 85/281/441
f 85/281/442 86/282/443 83/279/444
f 85/281/445 87/283/446 88/284/447
f 88/284/448 86/282/449 85/281/450
f 89/285/451 90/286/452 86/282/453
f 86/282/454 88/284/455 89/285/456
f 87/283/457 91/287/458 89/285/459
f 89/285/460 88/284/461 87/283/462
f 91/287/463 92/288/464 93/289/465
f 93/289/466 89/285/467 91/287/468
f 89/285/469 93/289/470 94/290/471
f 94/290/472 90/286/473 89/285/474
f 93/289/475 92/288/476 95/291/477
f 95/291/478 94/290/479 93/289/480
f 85/281/481 84/280/482 96/292/483
f 96/292/484 87/283/485 85/281/486
f 83/279/487 86/282/488 85/281/489
f 85/281/490 84/280/491 83/279/492
f 85/281/493 86/282/494 88/284/495
f 88/284/496 87/283/497 85/281/498
f 89/285/499 88/284/500 86/282/501
f 86/282/502 90/286/503 89/285/504
f 87/283/505 88/284/506 89/285/507
f 89/285/508 91/287/509 87/283/510
f 91/287/511 89/285/512 93/289/513
f 93/289/514 92/288/515 91/287/516
f 89/285/517 90/286/518 94/290/519
f 94/290/520 93/289/521 89/285/522
f 93/289/523 94/290/524 95/291/525
f 95/291/526 92/288/527 93/289/528
f 85/281/529 87/283/530 96/292/531
f 96/292/532 84/280/533 85/281/534
f 97/293/535 98/294/536 99/295/537
f 99/295/538 100/296/539 97/293/540
f 101/297/541 102/298/542 103/299/543
f 103/299/544 104/300/545 101/297/546
f 105/301/547 106/302/548 107/303/549
f 107/303/550 108/304/551 105/301/552
f 109/305/553 110/306/554 111/307/555
f 111/307/556 112/308/557 109/305/558
f 113/309/559 111/307/560 110/306/561
f 110/306/562 114/310/563 113/309/564
f 115/311/565 116/312/566 109/305/567
f 109/305/568 112/308/569 115/311/570
f 109/305/571 116/312/572 114/310/573
f 114/310/574 110/306/575 109/305/576
f 117/313/577 118/314/578 119/315/579
f 119/315/580 120/316/581 117/313/582
f 121/317/583 122/318/584 117/313/585
f 117/313/586 120/316/587 121/317/588
f 122/318/589 123/319/590 118/314/591
f 118/314/592 117/313/593 122/318/594
f 124/320/595 119/315/596 118/314/597
f 118/314/598 123/319/599 124/320/600
f 125/321/601 126/322/602 127/323/603
f 127/323/604 128/324/605 125/321/606
f 129/325/607 130/326/608 131/327/609
f 131/327/610 132/328/611 129/325/612
f 133/329/613 134/330/614 135/331/615
f 135/331/616 136/332/617 133/329/618
f 137/333/619 138/334/620 139/335/621
f 139/335/622 140/336/623 137/333/624
f 144/337/625 141/338/626 142/339/627
f 142/339/628 143/340/629 144/337/630
f 273/341/631 274/342/632 275/343/633
f 275/343/634 276/344/635 273/341/636
f 277/345/637 275/343/638 274/342/639
f 274/342/640 278/346/641 277/345/642
f 279/347/643 280/348/644 281/349/645
f 281/349/646 275/343/647 279/347/648
f 282/350/649 280/348/650 279/347/651
f 279/347/652 283/351/653 282/350/654
f 275/343/655 276/344/656 283/351/657
f 283/351/658 279/347/659 275/343/660
f 274/342/661 278/346/662 284/352/663
f 284/352/664 285/353/665 274/342/666
f 286/354/667 287/355/668 288/356/669
f 288/356/670 289/357/671 286/354/672
f 290/358/673 288/356/674 287/355/675
f 287/355/676 291/359/677 290/358/678
f 290/358/679 291/359/680 292/360/681
f 292/360/682 293/361/683 290/358/684
f 290/358/685 293/361/686 294/362/687
f 294/362/688 288/356/689 290/358/690
f 295/363/691 289/357/692 288/356/693
f 288/356/694 294/362/695 295/363/696
f 273/341/697 286/354/698 289/357/699
f 289/357/700 276/344/701 273/341/702
f 295/363/703 283/351/704 276/344/705
f 276/344/706 289/357/707 295/363/708
f 273/341/709 276/344/710 275/343/711
f 275/343/712 274/342/713 273/341/714
f 277/345/715 278/346/716 274/342/717
f 274/342/718 275/343/719 277/345/720
f 296/364/721 297/365/722 298/366/723
f 298/366/724 299/367/725 296/364/726
f 300/368/727 301/369/728 302/370/729
f 302/370/730 303/371/731 300/368/732
f 304/372/733 305/373/734 306/374/735
f 306/374/736 307/375/737 304/372/738
f 308/376/739 309/377/740 310/378/741
f 310/378/742 311/379/743 308/376/744
f 312/380/745 313/381/746 314/382/747
f 314/382/748 315/383/749 312/380/750
f 316/384/751 317/385/752 318/386/753
f 318/386/754 319/387/755 316/384/756
f 320/388/757 321/389/758 322/390/759
f 322/390/760 323/391/761 320/388/762
f 324/392/763 325/393/764 326/394/765
f 326/394/766 327/395/767 324/392/768
f 328/396/769 329/397/770 330/398/771
f 330/398/772 331/399/773 328/396/774
f 332/400/775 333/401/776 334/402/777
f 334/402/778 335/403/779 332/400/780
